<svg width="955" height="217" viewBox="0 0 955 217" fill="none" xmlns="http://www.w3.org/2000/svg">
<path d="M0.200001 36.6V0.599999H45.2C77 0.599999 102.2 10.2 120.8 29.4C139.6 48.6 149 74.5 149 107.1C149 139.9 139.6 165.8 120.8 184.8C102.2 203.6 77 213 45.2 213H0.200001V177H45.5C64.5 177 79.5 170.9 90.5 158.7C101.7 146.3 107.3 129.1 107.3 107.1C107.3 85.1 101.7 67.9 90.5 55.5C79.5 42.9 64.5 36.6 45.5 36.6H0.200001ZM0.200001 135H59V137.4H0.200001V135ZM59 162.6H0.200001V160.2H59V162.6ZM0.200001 118.2H59V120.6H0.200001V118.2ZM0.200001 151.8H59V154.2H0.200001V151.8ZM0.200001 45V42.6H59V45H0.200001ZM0.200001 53.4V51H59V53.4H0.200001ZM0.200001 168.6H59V171H0.200001V168.6ZM0.200001 126.6H59V129H0.200001V126.6ZM0.200001 67.8H59V70.2H0.200001V67.8ZM59 87H0.200001V84.6H59V87ZM0.200001 93H59V95.4H0.200001V93ZM59 61.8H0.200001V59.4H59V61.8ZM59 103.8H0.200001V101.4H59V103.8ZM59 145.8H0.200001V143.4H59V145.8ZM0.200001 76.2H59V78.6H0.200001V76.2ZM0.200001 109.8H59V112.2H0.200001V109.8ZM188.811 198.9C176.611 187.1 170.511 171.8 170.511 153C170.511 134.2 176.611 118.9 188.811 107.1C201.011 95.3 216.111 89.4 234.111 89.4C252.111 89.4 267.211 95.3 279.411 107.1C291.611 118.9 297.711 134.2 297.711 153C297.711 171.8 291.611 187.1 279.411 198.9C267.211 210.7 252.111 216.6 234.111 216.6C216.111 216.6 201.011 210.7 188.811 198.9ZM202.311 151.8H265.911C265.711 142 262.511 134.4 256.311 129C250.311 123.4 242.911 120.6 234.111 120.6C225.311 120.6 217.811 123.4 211.611 129C205.611 134.4 202.511 142 202.311 151.8ZM265.911 154.2H202.311C202.311 155.8 202.511 157.8 202.911 160.2H265.311C265.711 157.8 265.911 155.8 265.911 154.2ZM205.611 168.6H262.611C263.211 167.4 263.911 165.4 264.711 162.6H203.511C204.311 165.4 205.011 167.4 205.611 168.6ZM261.411 171H206.811C208.211 173.2 209.811 175.2 211.611 177H256.611C258.411 175.2 260.011 173.2 261.411 171ZM253.611 179.4H214.611C220.211 183.4 226.711 185.4 234.111 185.4C241.511 185.4 248.011 183.4 253.611 179.4ZM337.639 198.9C325.439 187.1 319.339 171.8 319.339 153C319.339 134.2 325.439 118.9 337.639 107.1C349.839 95.3 364.939 89.4 382.939 89.4C400.939 89.4 416.039 95.3 428.239 107.1C440.439 118.9 446.539 134.2 446.539 153C446.539 171.8 440.439 187.1 428.239 198.9C416.039 210.7 400.939 216.6 382.939 216.6C364.939 216.6 349.839 210.7 337.639 198.9ZM351.139 151.8H414.739C414.539 142 411.339 134.4 405.139 129C399.139 123.4 391.739 120.6 382.939 120.6C374.139 120.6 366.639 123.4 360.439 129C354.439 134.4 351.339 142 351.139 151.8ZM414.739 154.2H351.139C351.139 155.8 351.339 157.8 351.739 160.2H414.139C414.539 157.8 414.739 155.8 414.739 154.2ZM354.439 168.6H411.439C412.039 167.4 412.739 165.4 413.539 162.6H352.339C353.139 165.4 353.839 167.4 354.439 168.6ZM410.239 171H355.639C357.039 173.2 358.639 175.2 360.439 177H405.439C407.239 175.2 408.839 173.2 410.239 171ZM402.439 179.4H363.439C369.039 183.4 375.539 185.4 382.939 185.4C390.339 185.4 396.839 183.4 402.439 179.4ZM485.567 198.9C473.967 187.1 468.167 171.9 468.167 153.3C468.167 134.7 473.867 119.4 485.267 107.4C496.667 95.4 511.267 89.4 529.067 89.4C542.867 89.4 553.367 93.4 560.567 101.4H594.167V103.8H560.567V109.8H594.167V112.2H560.567V118.2H594.167V120.6H560.567V126.6H594.167V129H560.567V135H594.167V137.4H560.567C559.967 133.6 557.167 129.9 552.167 126.3C547.167 122.5 540.667 120.6 532.667 120.6C523.067 120.6 515.167 123.5 508.967 129.3C502.967 134.9 499.967 142.7 499.967 152.7C499.967 162.9 502.967 170.9 508.967 176.7C514.967 182.5 522.367 185.4 531.167 185.4C539.367 185.4 546.267 183 551.867 178.2C557.467 173.2 560.367 167.2 560.567 160.2H594.167C593.367 177 587.567 190.6 576.767 201C565.967 211.4 551.267 216.6 532.667 216.6C512.867 216.6 497.167 210.7 485.567 198.9ZM560.567 84.6H594.167V87H560.567V84.6ZM594.167 2.99999H560.567V0.599999H594.167V2.99999ZM594.167 53.4H560.567V51H594.167V53.4ZM560.567 25.8H594.167V28.2H560.567V25.8ZM594.167 36.6H560.567V34.2H594.167V36.6ZM594.167 11.4H560.567V9H594.167V11.4ZM594.167 19.8H560.567V17.4H594.167V19.8ZM560.567 143.4H594.167V145.8H560.567V143.4ZM560.567 42.6H594.167V45H560.567V42.6ZM560.567 93H594.167V95.4H560.567V93ZM594.167 61.8H560.567V59.4H594.167V61.8ZM594.167 78.6H560.567V76.2H594.167V78.6ZM560.567 151.8H594.167V154.2H560.567V151.8ZM594.167 70.2H560.567V67.8H594.167V70.2ZM625.339 213V0.599999H658.939V213H625.339ZM704.729 198.9C692.529 187.1 686.429 171.8 686.429 153C686.429 134.2 692.529 118.9 704.729 107.1C716.929 95.3 732.029 89.4 750.029 89.4C768.029 89.4 783.129 95.3 795.329 107.1C807.529 118.9 813.629 134.2 813.629 153V154.2H718.229C718.429 164 721.529 171.7 727.529 177.3C733.729 182.7 741.229 185.4 750.029 185.4H753.629V216.6H750.029C732.029 216.6 716.929 210.7 704.729 198.9ZM781.229 145.8H718.829C718.429 148.2 718.229 150.2 718.229 151.8H781.829C781.829 150.2 781.629 148.2 781.229 145.8ZM778.529 137.4H721.529C720.929 138.6 720.229 140.6 719.429 143.4H780.629C779.829 140.6 779.129 138.6 778.529 137.4ZM772.529 129H727.529C725.729 130.8 724.129 132.8 722.729 135H777.329C775.929 132.8 774.329 130.8 772.529 129ZM730.529 126.6H769.529C763.929 122.6 757.429 120.6 750.029 120.6C742.629 120.6 736.129 122.6 730.529 126.6ZM833.584 213V152.7C833.584 134.5 837.784 120 846.184 109.2C854.784 98.4 868.184 93 886.384 93H894.784V124.8H889.684C881.084 124.8 875.184 127.6 871.984 133.2C868.784 138.6 867.184 146.1 867.184 155.7V213H833.584ZM918.427 210.6C914.427 206.4 912.427 201.4 912.427 195.6C912.427 189.8 914.427 184.9 918.427 180.9C922.627 176.7 927.627 174.6 933.427 174.6C939.227 174.6 944.127 176.7 948.127 180.9C952.327 184.9 954.427 189.8 954.427 195.6C954.427 201.4 952.327 206.4 948.127 210.6C944.127 214.6 939.227 216.6 933.427 216.6C927.627 216.6 922.627 214.6 918.427 210.6ZM915.727 42.6H951.127V45H915.727V42.6ZM951.127 2.99999H915.727V0.599999H951.127V2.99999ZM915.727 118.2H951.127V120.6H915.727V118.2ZM951.127 19.8H915.727V17.4H951.127V19.8ZM951.127 70.2H915.727V67.8H951.127V70.2ZM951.127 11.4H915.727V9H951.127V11.4ZM951.127 61.8H915.727V59.4H951.127V61.8ZM951.127 78.6H915.727V76.2H951.127V78.6ZM915.727 51H951.127V53.4H915.727V51ZM915.727 34.2H951.127V36.6H915.727V34.2ZM951.127 112.2H915.727V109.8H951.127V112.2ZM951.127 145.8H915.727V143.4H951.127V145.8ZM951.127 154.2H915.727V151.8H951.127V154.2ZM915.727 162.6V160.2H951.127V162.6H915.727ZM951.127 87H915.727V84.6H951.127V87ZM915.727 25.8H951.127V28.2H915.727V25.8ZM915.727 135H951.127V137.4H915.727V135ZM951.127 103.8H915.727V101.4H951.127V103.8ZM915.727 126.6H951.127V129H915.727V126.6ZM915.727 93H951.127V95.4H915.727V93Z" fill="black"/>
</svg>
