<svg width="599" height="108" viewBox="0 0 599 108" fill="none" xmlns="http://www.w3.org/2000/svg">
<path d="M8.487 4.187C9.68033 2.75499 15.468 2.27766 25.85 2.75499C36.232 3.113 44.1677 4.187 49.657 5.977C60.755 9.55699 69.6453 16.18 76.328 25.846C83.13 35.512 86.1133 45.894 85.278 56.992C84.204 70.238 80.3257 80.441 73.643 87.601C67.6763 93.8063 60.5163 98.162 52.163 100.668C43.929 103.174 32.7117 104.308 18.511 104.069L0.79 103.711L0.969 85.99C1.08833 73.9373 1.62533 64.6293 2.58 58.066C3.41533 50.548 4.31033 40.166 5.265 26.92C6.339 13.0773 7.413 5.49966 8.487 4.187ZM16.363 11.526C16.6017 10.2133 16.0647 9.55699 14.752 9.55699C13.5587 9.55699 13.0813 10.2133 13.32 11.526C13.5587 12.7193 14.036 13.3757 14.752 13.495C15.5873 13.495 16.1243 12.8387 16.363 11.526ZM50.91 13.137C46.614 11.4663 42.3777 10.3923 38.201 9.915C34.0243 9.43766 31.757 9.736 31.399 10.81C31.041 11.6453 30.0267 23.8173 28.356 47.326C26.6853 70.8347 25.7903 85.5723 25.671 91.539L25.313 97.804L33.547 97.446C37.843 97.2073 42.139 96.551 46.435 95.477C50.8503 94.2837 54.7883 92.792 58.249 91.002C61.829 89.212 64.9913 87.1237 67.736 84.737C70.4807 82.3503 72.4497 79.8443 73.643 77.219C76.9843 70.059 78.5357 62.0637 78.297 53.233C78.1777 44.4023 76.2683 37.0037 72.569 31.037C70.6597 27.9343 67.378 24.4737 62.724 20.655C58.1893 16.8363 54.2513 14.3303 50.91 13.137ZM19.943 17.791C20.7783 17.791 21.196 16.6573 21.196 14.39C21.196 12.0033 20.7783 10.81 19.943 10.81C19.227 10.81 18.869 12.0033 18.869 14.39C18.869 16.6573 19.227 17.791 19.943 17.791ZM22.807 27.457C23.2843 26.741 21.7927 24.6527 18.332 21.192C14.8713 17.8507 13.141 16.5977 13.141 17.433C13.141 18.0297 13.857 19.2827 15.289 21.192C16.8403 22.982 18.3917 24.593 19.943 26.025C21.6137 27.3377 22.5683 27.815 22.807 27.457ZM17.795 27.636C15.0503 24.8913 13.3797 23.519 12.783 23.519C10.993 23.519 11.172 25.1897 13.32 28.531C15.5873 31.9917 17.616 33.6623 19.406 33.543C19.764 33.543 20.0623 33.4237 20.301 33.185C21.2557 32.2303 20.4203 30.3807 17.795 27.636ZM14.215 33.364C14.215 33.1253 13.7973 33.006 12.962 33.006C12.246 33.006 11.888 33.4237 11.888 34.259C11.888 35.2137 12.4847 35.154 13.678 34.08C14.036 33.8413 14.215 33.6027 14.215 33.364ZM21.196 38.734C21.4347 38.376 21.6137 38.018 21.733 37.66C21.9717 37.302 22.091 37.0633 22.091 36.944C22.091 36.7053 22.0313 36.5263 21.912 36.407C21.554 36.407 20.9573 37.1827 20.122 38.734C19.8833 39.2113 19.7043 39.629 19.585 39.987C19.4657 40.345 19.3463 40.6433 19.227 40.882C19.227 41.0013 19.2867 41.061 19.406 41.061C19.764 41.061 20.3607 40.2853 21.196 38.734ZM15.468 47.326C16.542 46.3713 16.8403 45.6553 16.363 45.178C16.005 44.82 15.5873 45.178 15.11 46.252L14.931 46.61C14.573 47.4453 14.4537 47.9227 14.573 48.042L15.468 47.326ZM19.048 49.832C20.7187 48.1613 21.375 46.789 21.017 45.715C20.659 44.641 19.8237 45.4763 18.511 48.221L16.542 52.338L19.048 49.832ZM20.48 63.794C20.5993 63.5553 19.8833 62.362 18.332 60.214C16.9 58.066 15.289 56.1567 13.499 54.486C11.709 52.696 10.5753 52.159 10.098 52.875C9.62067 53.7103 11.0527 55.918 14.394 59.498C17.974 63.078 20.0027 64.51 20.48 63.794ZM19.943 57.529C20.7783 57.529 21.196 56.9323 21.196 55.739C21.196 54.5457 20.7783 53.949 19.943 53.949C19.227 53.949 18.869 54.5457 18.869 55.739C18.869 56.9323 19.227 57.529 19.943 57.529ZM20.122 70.596C20.0027 70.3573 19.1077 69.2237 17.437 67.195C15.8857 65.1663 14.1553 63.257 12.246 61.467C10.456 59.677 9.382 59.14 9.024 59.856C8.42733 60.8107 9.79967 63.0183 13.141 66.479C17.9143 71.2523 20.2413 72.6247 20.122 70.596ZM10.277 69.164C10.635 69.164 10.814 68.806 10.814 68.09C10.814 67.2547 10.3367 66.837 9.382 66.837C8.42733 66.837 8.487 67.4337 9.561 68.627C9.919 68.985 10.1577 69.164 10.277 69.164ZM11.172 73.818C13.2007 73.818 14.215 73.46 14.215 72.744C14.215 71.9087 13.2007 71.491 11.172 71.491C9.26267 71.491 8.308 71.9087 8.308 72.744C8.308 73.46 9.26267 73.818 11.172 73.818ZM11.888 77.398C9.50133 75.8467 8.308 76.0257 8.308 77.935C8.308 79.1283 8.78533 79.9637 9.74 80.441C10.6947 80.799 11.53 80.62 12.246 79.904C13.2007 78.9493 13.0813 78.114 11.888 77.398ZM14.394 82.768C14.9907 83.484 16.363 82.3503 18.511 79.367C19.4657 78.0543 19.7043 77.398 19.227 77.398C18.869 77.398 18.2127 77.8157 17.258 78.651C16.4227 79.367 15.647 80.1427 14.931 80.978C14.3343 81.8133 14.1553 82.41 14.394 82.768ZM18.153 94.224C18.511 93.3887 17.0193 91.3003 13.678 87.959C10.098 84.6177 8.308 83.3647 8.308 84.2C8.308 84.916 9.08367 86.169 10.635 87.959C12.1863 89.749 13.7377 91.36 15.289 92.792C16.9597 94.1047 17.9143 94.582 18.153 94.224ZM17.616 86.706C18.4513 86.706 18.869 86.348 18.869 85.632C18.869 84.7967 18.4513 84.379 17.616 84.379C16.9 84.379 16.542 84.7967 16.542 85.632C16.542 86.348 16.9 86.706 17.616 86.706ZM14.752 97.088C15.5873 96.6107 14.5133 95.298 11.53 93.15C10.2173 92.1953 9.561 91.897 9.561 92.255C9.561 92.971 10.3367 94.045 11.888 95.477C13.4393 96.909 14.394 97.446 14.752 97.088ZM6.518 96.73C6.518 97.088 6.697 97.446 7.055 97.804C7.53233 98.162 7.95 98.2217 8.308 97.983C8.78533 97.625 9.024 97.267 9.024 96.909C9.14333 96.4317 8.96433 96.014 8.487 95.656C8.129 95.298 7.71133 95.298 7.234 95.656C6.75667 95.8947 6.518 96.2527 6.518 96.73ZM122.007 4.72399C125.706 3.41133 128.152 2.75499 129.346 2.75499C130.539 2.75499 133.045 3.29199 136.864 4.366C141.756 5.91733 146.351 8.72166 150.647 12.779C154.943 16.717 158.523 21.6693 161.387 27.636C164.489 34.08 166.22 38.9727 166.578 42.314C167.055 45.2973 166.876 50.1303 166.041 56.813C165.325 63.3763 164.31 68.9253 162.998 73.46C161.804 77.756 159.597 82.3503 156.375 87.243C153.272 92.0163 150.05 95.7753 146.709 98.52C144.203 100.549 142.234 101.981 140.802 102.816C139.489 103.651 138.057 104.308 136.506 104.785C134.954 105.143 132.627 105.561 129.525 106.038C120.217 107.112 111.923 104.606 104.644 98.52C97.4836 92.434 92.7699 83.9017 90.5026 72.923C89.5479 68.3883 89.0109 62.899 88.8916 56.455C88.7722 50.011 89.1899 44.9393 90.1446 41.24C90.6219 39.092 91.5169 36.4667 92.8296 33.364C94.1422 30.2613 95.6339 27.2183 97.3046 24.235C98.9752 21.2517 100.527 18.865 101.959 17.075C106.255 11.9437 112.937 7.82666 122.007 4.72399ZM146.351 18.507C142.89 14.927 140.563 13.137 139.37 13.137C137.818 13.137 135.074 17.3137 131.136 25.667C127.198 33.901 124.751 40.8223 123.797 46.431C122.842 52.159 122.603 58.3643 123.081 65.047C123.677 71.7297 124.871 77.6367 126.661 82.768C129.405 90.0473 131.673 94.403 133.463 95.835C135.253 97.267 137.759 96.7897 140.981 94.403C151.721 86.169 157.628 72.1473 158.702 52.338C159.06 46.3713 159.06 42.493 158.702 40.703C158.463 38.913 157.449 36.049 155.659 32.111C153.153 26.8603 150.05 22.3257 146.351 18.507ZM111.088 20.655C113.474 18.149 114.369 16.7767 113.773 16.538C113.057 16.538 111.565 17.7313 109.298 20.118C107.03 22.3853 106.076 23.7577 106.434 24.235C106.911 24.593 108.462 23.3997 111.088 20.655ZM120.217 22.445C120.813 22.445 121.649 21.8483 122.723 20.655C123.797 19.4617 123.856 18.865 122.902 18.865C122.305 18.865 121.47 19.4617 120.396 20.655C119.322 21.8483 119.262 22.445 120.217 22.445ZM121.47 27.636C121.47 27.278 121.052 27.099 120.217 27.099C119.501 27.099 119.143 27.5167 119.143 28.352C119.143 29.426 119.799 29.426 121.112 28.352C121.35 27.994 121.47 27.7553 121.47 27.636ZM107.687 69.164C108.641 69.164 108.582 68.5673 107.508 67.374C107.269 67.016 107.03 66.837 106.792 66.837C106.553 66.837 106.434 67.2547 106.434 68.09C106.434 68.806 106.851 69.164 107.687 69.164ZM109.656 73.818C110.61 73.818 111.088 73.46 111.088 72.744C111.088 71.9087 110.909 71.491 110.551 71.491C110.193 71.491 109.775 71.9683 109.298 72.923C108.94 73.5197 109.059 73.818 109.656 73.818ZM118.427 84.737C116.995 83.305 113.415 81.2167 107.687 78.472C101.959 75.7273 98.9752 74.5937 98.7366 75.071C98.2592 75.9063 102.376 78.472 111.088 82.768C116.935 85.5127 119.68 86.4673 119.322 85.632C119.202 85.3933 118.904 85.095 118.427 84.737ZM104.107 84.379C104.823 84.379 105.181 84.021 105.181 83.305C105.181 82.4697 104.584 82.052 103.391 82.052C101.959 82.052 101.72 82.589 102.675 83.663C103.152 84.1403 103.629 84.379 104.107 84.379ZM107.508 91.539C108.343 91.539 108.761 91.1213 108.761 90.286C108.761 89.4507 108.343 89.033 107.508 89.033C106.792 89.033 106.434 89.4507 106.434 90.286C106.434 91.1213 106.792 91.539 107.508 91.539ZM118.248 95.298C119.083 94.3433 119.023 93.687 118.069 93.329C117.233 92.971 116.637 93.15 116.279 93.866C115.682 94.8207 115.622 95.477 116.1 95.835C116.696 96.193 117.412 96.014 118.248 95.298ZM203.291 4.72399C206.99 3.41133 209.436 2.75499 210.63 2.75499C211.823 2.75499 214.329 3.29199 218.148 4.366C223.04 5.91733 227.635 8.72166 231.931 12.779C236.227 16.717 239.807 21.6693 242.671 27.636C245.773 34.08 247.504 38.9727 247.862 42.314C248.339 45.2973 248.16 50.1303 247.325 56.813C246.609 63.3763 245.594 68.9253 244.282 73.46C243.088 77.756 240.881 82.3503 237.659 87.243C234.556 92.0163 231.334 95.7753 227.993 98.52C225.487 100.549 223.518 101.981 222.086 102.816C220.773 103.651 219.341 104.308 217.79 104.785C216.238 105.143 213.911 105.561 210.809 106.038C201.501 107.112 193.207 104.606 185.928 98.52C178.768 92.434 174.054 83.9017 171.787 72.923C170.832 68.3883 170.295 62.899 170.176 56.455C170.056 50.011 170.474 44.9393 171.429 41.24C171.906 39.092 172.801 36.4667 174.114 33.364C175.426 30.2613 176.918 27.2183 178.589 24.235C180.259 21.2517 181.811 18.865 183.243 17.075C187.539 11.9437 194.221 7.82666 203.291 4.72399ZM227.635 18.507C224.174 14.927 221.847 13.137 220.654 13.137C219.102 13.137 216.358 17.3137 212.42 25.667C208.482 33.901 206.035 40.8223 205.081 46.431C204.126 52.159 203.887 58.3643 204.365 65.047C204.961 71.7297 206.155 77.6367 207.945 82.768C210.689 90.0473 212.957 94.403 214.747 95.835C216.537 97.267 219.043 96.7897 222.265 94.403C233.005 86.169 238.912 72.1473 239.986 52.338C240.344 46.3713 240.344 42.493 239.986 40.703C239.747 38.913 238.733 36.049 236.943 32.111C234.437 26.8603 231.334 22.3257 227.635 18.507ZM192.372 20.655C194.758 18.149 195.653 16.7767 195.057 16.538C194.341 16.538 192.849 17.7313 190.582 20.118C188.314 22.3853 187.36 23.7577 187.718 24.235C188.195 24.593 189.746 23.3997 192.372 20.655ZM201.501 22.445C202.097 22.445 202.933 21.8483 204.007 20.655C205.081 19.4617 205.14 18.865 204.186 18.865C203.589 18.865 202.754 19.4617 201.68 20.655C200.606 21.8483 200.546 22.445 201.501 22.445ZM202.754 27.636C202.754 27.278 202.336 27.099 201.501 27.099C200.785 27.099 200.427 27.5167 200.427 28.352C200.427 29.426 201.083 29.426 202.396 28.352C202.634 27.994 202.754 27.7553 202.754 27.636ZM188.971 69.164C189.925 69.164 189.866 68.5673 188.792 67.374C188.553 67.016 188.314 66.837 188.076 66.837C187.837 66.837 187.718 67.2547 187.718 68.09C187.718 68.806 188.135 69.164 188.971 69.164ZM190.94 73.818C191.894 73.818 192.372 73.46 192.372 72.744C192.372 71.9087 192.193 71.491 191.835 71.491C191.477 71.491 191.059 71.9683 190.582 72.923C190.224 73.5197 190.343 73.818 190.94 73.818ZM199.711 84.737C198.279 83.305 194.699 81.2167 188.971 78.472C183.243 75.7273 180.259 74.5937 180.021 75.071C179.543 75.9063 183.66 78.472 192.372 82.768C198.219 85.5127 200.964 86.4673 200.606 85.632C200.486 85.3933 200.188 85.095 199.711 84.737ZM185.391 84.379C186.107 84.379 186.465 84.021 186.465 83.305C186.465 82.4697 185.868 82.052 184.675 82.052C183.243 82.052 183.004 82.589 183.959 83.663C184.436 84.1403 184.913 84.379 185.391 84.379ZM188.792 91.539C189.627 91.539 190.045 91.1213 190.045 90.286C190.045 89.4507 189.627 89.033 188.792 89.033C188.076 89.033 187.718 89.4507 187.718 90.286C187.718 91.1213 188.076 91.539 188.792 91.539ZM199.532 95.298C200.367 94.3433 200.307 93.687 199.353 93.329C198.517 92.971 197.921 93.15 197.563 93.866C196.966 94.8207 196.906 95.477 197.384 95.835C197.98 96.193 198.696 96.014 199.532 95.298ZM259.157 4.187C260.35 2.75499 266.138 2.27766 276.52 2.75499C286.902 3.113 294.838 4.187 300.327 5.977C311.425 9.55699 320.315 16.18 326.998 25.846C333.8 35.512 336.783 45.894 335.948 56.992C334.874 70.238 330.996 80.441 324.313 87.601C318.346 93.8063 311.186 98.162 302.833 100.668C294.599 103.174 283.382 104.308 269.181 104.069L251.46 103.711L251.639 85.99C251.758 73.9373 252.295 64.6293 253.25 58.066C254.085 50.548 254.98 40.166 255.935 26.92C257.009 13.0773 258.083 5.49966 259.157 4.187ZM267.033 11.526C267.272 10.2133 266.735 9.55699 265.422 9.55699C264.229 9.55699 263.751 10.2133 263.99 11.526C264.229 12.7193 264.706 13.3757 265.422 13.495C266.257 13.495 266.794 12.8387 267.033 11.526ZM301.58 13.137C297.284 11.4663 293.048 10.3923 288.871 9.915C284.694 9.43766 282.427 9.736 282.069 10.81C281.711 11.6453 280.697 23.8173 279.026 47.326C277.355 70.8347 276.46 85.5723 276.341 91.539L275.983 97.804L284.217 97.446C288.513 97.2073 292.809 96.551 297.105 95.477C301.52 94.2837 305.458 92.792 308.919 91.002C312.499 89.212 315.661 87.1237 318.406 84.737C321.151 82.3503 323.12 79.8443 324.313 77.219C327.654 70.059 329.206 62.0637 328.967 53.233C328.848 44.4023 326.938 37.0037 323.239 31.037C321.33 27.9343 318.048 24.4737 313.394 20.655C308.859 16.8363 304.921 14.3303 301.58 13.137ZM270.613 17.791C271.448 17.791 271.866 16.6573 271.866 14.39C271.866 12.0033 271.448 10.81 270.613 10.81C269.897 10.81 269.539 12.0033 269.539 14.39C269.539 16.6573 269.897 17.791 270.613 17.791ZM273.477 27.457C273.954 26.741 272.463 24.6527 269.002 21.192C265.541 17.8507 263.811 16.5977 263.811 17.433C263.811 18.0297 264.527 19.2827 265.959 21.192C267.51 22.982 269.062 24.593 270.613 26.025C272.284 27.3377 273.238 27.815 273.477 27.457ZM268.465 27.636C265.72 24.8913 264.05 23.519 263.453 23.519C261.663 23.519 261.842 25.1897 263.99 28.531C266.257 31.9917 268.286 33.6623 270.076 33.543C270.434 33.543 270.732 33.4237 270.971 33.185C271.926 32.2303 271.09 30.3807 268.465 27.636ZM264.885 33.364C264.885 33.1253 264.467 33.006 263.632 33.006C262.916 33.006 262.558 33.4237 262.558 34.259C262.558 35.2137 263.155 35.154 264.348 34.08C264.706 33.8413 264.885 33.6027 264.885 33.364ZM271.866 38.734C272.105 38.376 272.284 38.018 272.403 37.66C272.642 37.302 272.761 37.0633 272.761 36.944C272.761 36.7053 272.701 36.5263 272.582 36.407C272.224 36.407 271.627 37.1827 270.792 38.734C270.553 39.2113 270.374 39.629 270.255 39.987C270.136 40.345 270.016 40.6433 269.897 40.882C269.897 41.0013 269.957 41.061 270.076 41.061C270.434 41.061 271.031 40.2853 271.866 38.734ZM266.138 47.326C267.212 46.3713 267.51 45.6553 267.033 45.178C266.675 44.82 266.257 45.178 265.78 46.252L265.601 46.61C265.243 47.4453 265.124 47.9227 265.243 48.042L266.138 47.326ZM269.718 49.832C271.389 48.1613 272.045 46.789 271.687 45.715C271.329 44.641 270.494 45.4763 269.181 48.221L267.212 52.338L269.718 49.832ZM271.15 63.794C271.269 63.5553 270.553 62.362 269.002 60.214C267.57 58.066 265.959 56.1567 264.169 54.486C262.379 52.696 261.245 52.159 260.768 52.875C260.291 53.7103 261.723 55.918 265.064 59.498C268.644 63.078 270.673 64.51 271.15 63.794ZM270.613 57.529C271.448 57.529 271.866 56.9323 271.866 55.739C271.866 54.5457 271.448 53.949 270.613 53.949C269.897 53.949 269.539 54.5457 269.539 55.739C269.539 56.9323 269.897 57.529 270.613 57.529ZM270.792 70.596C270.673 70.3573 269.778 69.2237 268.107 67.195C266.556 65.1663 264.825 63.257 262.916 61.467C261.126 59.677 260.052 59.14 259.694 59.856C259.097 60.8107 260.47 63.0183 263.811 66.479C268.584 71.2523 270.911 72.6247 270.792 70.596ZM260.947 69.164C261.305 69.164 261.484 68.806 261.484 68.09C261.484 67.2547 261.007 66.837 260.052 66.837C259.097 66.837 259.157 67.4337 260.231 68.627C260.589 68.985 260.828 69.164 260.947 69.164ZM261.842 73.818C263.871 73.818 264.885 73.46 264.885 72.744C264.885 71.9087 263.871 71.491 261.842 71.491C259.933 71.491 258.978 71.9087 258.978 72.744C258.978 73.46 259.933 73.818 261.842 73.818ZM262.558 77.398C260.171 75.8467 258.978 76.0257 258.978 77.935C258.978 79.1283 259.455 79.9637 260.41 80.441C261.365 80.799 262.2 80.62 262.916 79.904C263.871 78.9493 263.751 78.114 262.558 77.398ZM265.064 82.768C265.661 83.484 267.033 82.3503 269.181 79.367C270.136 78.0543 270.374 77.398 269.897 77.398C269.539 77.398 268.883 77.8157 267.928 78.651C267.093 79.367 266.317 80.1427 265.601 80.978C265.004 81.8133 264.825 82.41 265.064 82.768ZM268.823 94.224C269.181 93.3887 267.689 91.3003 264.348 87.959C260.768 84.6177 258.978 83.3647 258.978 84.2C258.978 84.916 259.754 86.169 261.305 87.959C262.856 89.749 264.408 91.36 265.959 92.792C267.63 94.1047 268.584 94.582 268.823 94.224ZM268.286 86.706C269.121 86.706 269.539 86.348 269.539 85.632C269.539 84.7967 269.121 84.379 268.286 84.379C267.57 84.379 267.212 84.7967 267.212 85.632C267.212 86.348 267.57 86.706 268.286 86.706ZM265.422 97.088C266.257 96.6107 265.183 95.298 262.2 93.15C260.887 92.1953 260.231 91.897 260.231 92.255C260.231 92.971 261.007 94.045 262.558 95.477C264.109 96.909 265.064 97.446 265.422 97.088ZM257.188 96.73C257.188 97.088 257.367 97.446 257.725 97.804C258.202 98.162 258.62 98.2217 258.978 97.983C259.455 97.625 259.694 97.267 259.694 96.909C259.813 96.4317 259.634 96.014 259.157 95.656C258.799 95.298 258.381 95.298 257.904 95.656C257.427 95.8947 257.188 96.2527 257.188 96.73ZM342.067 5.61899C342.425 4.90299 343.32 4.42566 344.752 4.187C346.304 3.82899 349.347 3.64999 353.881 3.64999C358.535 3.64999 361.698 3.82899 363.368 4.187C365.158 4.42566 366.65 5.02233 367.843 5.977C369.395 7.28966 370.23 9.55699 370.349 12.779C370.469 15.8817 369.932 26.1443 368.738 43.567C368.022 56.097 367.485 68.5673 367.127 80.978L366.948 100.31L384.49 101.205C396.066 101.921 402.271 102.577 403.106 103.174C403.703 103.89 403.524 104.904 402.569 106.217C401.853 107.172 399.884 107.709 396.662 107.828C393.44 107.947 385.385 107.828 372.497 107.47C353.643 106.993 343.38 106.277 341.709 105.322C340.516 104.725 339.8 102.398 339.561 98.341C339.442 94.1643 339.621 80.0233 340.098 55.918C340.576 23.9367 341.232 7.17032 342.067 5.61899ZM355.85 14.927C355.85 14.927 355.91 14.748 356.029 14.39C356.149 14.032 356.268 13.674 356.387 13.316C356.507 12.958 356.566 12.6 356.566 12.242C356.686 11.7647 356.686 11.4067 356.566 11.168C356.566 10.9293 356.387 10.81 356.029 10.81C355.313 10.81 354.717 11.7647 354.239 13.674C354.12 14.748 354.299 15.3447 354.776 15.464C355.492 15.464 355.85 15.285 355.85 14.927ZM350.122 15.464C351.196 15.464 351.137 14.8673 349.943 13.674L349.227 13.137C348.989 13.137 348.869 13.5547 348.869 14.39C348.869 15.106 349.287 15.464 350.122 15.464ZM356.387 29.247C356.626 29.0083 355.433 27.3377 352.807 24.235C350.182 21.013 348.869 20.0583 348.869 21.371C348.869 21.9677 349.406 22.982 350.48 24.414C351.554 25.846 352.688 27.099 353.881 28.173C355.194 29.247 356.029 29.605 356.387 29.247ZM358.714 40.524C360.743 37.66 361.578 36.1087 361.22 35.87C360.982 35.512 359.788 36.7053 357.64 39.45C355.612 42.0753 354.717 43.6267 354.955 44.104C355.194 44.462 356.447 43.2687 358.714 40.524ZM347.616 41.061C348.452 41.061 348.869 40.703 348.869 39.987C348.869 39.1517 348.69 38.734 348.332 38.734C347.974 38.734 347.557 39.2113 347.079 40.166C346.721 40.7627 346.9 41.061 347.616 41.061ZM351.196 43.209C351.196 41.6577 350.301 42.0753 348.511 44.462C347.079 46.252 346.542 47.3857 346.9 47.863C347.258 48.221 348.034 47.7437 349.227 46.431C350.421 45.1183 351.077 44.0443 351.196 43.209ZM356.924 50.548C357.76 50.548 358.177 50.19 358.177 49.474C358.177 48.6387 357.76 48.221 356.924 48.221C356.208 48.221 355.85 48.6387 355.85 49.474C355.85 50.19 356.208 50.548 356.924 50.548ZM352.27 58.782C353.106 58.782 353.523 58.0063 353.523 56.455C353.523 54.7843 353.106 53.949 352.27 53.949C351.554 53.949 351.196 54.7843 351.196 56.455C351.196 58.0063 351.554 58.782 352.27 58.782ZM360.862 58.782C362.056 57.5887 362.056 56.6937 360.862 56.097C359.908 55.6197 358.774 55.8583 357.461 56.813C356.387 57.6483 355.85 58.1853 355.85 58.424C355.85 58.6627 356.328 58.961 357.282 59.319C358.834 59.7963 360.027 59.6173 360.862 58.782ZM356.387 64.51C358.416 64.51 359.43 64.152 359.43 63.436C359.43 62.6007 358.416 62.183 356.387 62.183C354.478 62.183 353.523 62.6007 353.523 63.436C353.523 64.152 354.478 64.51 356.387 64.51ZM349.943 65.763C349.943 64.9277 349.585 64.331 348.869 63.973C348.034 63.4957 347.616 63.6747 347.616 64.51C347.616 65.226 348.034 65.8227 348.869 66.3C349.585 66.658 349.943 66.479 349.943 65.763ZM358.177 69.164C359.013 69.164 359.43 68.806 359.43 68.09C359.43 67.2547 359.013 66.837 358.177 66.837C357.461 66.837 357.103 67.2547 357.103 68.09C357.103 68.806 357.461 69.164 358.177 69.164ZM354.06 75.787C349.406 70.5363 347.139 68.448 347.258 69.522C347.378 70.238 348.929 72.386 351.912 75.966C355.731 80.5007 357.7 82.8873 357.819 83.126C358.177 83.484 358.535 83.4243 358.893 82.947C359.371 82.4697 357.76 80.083 354.06 75.787ZM346.542 80.262C347.974 81.2167 348.631 80.9183 348.511 79.367C348.511 77.219 347.915 75.8467 346.721 75.25C346.602 75.1307 346.483 75.071 346.363 75.071C345.886 75.071 345.528 75.429 345.289 76.145C345.17 76.861 345.23 77.6963 345.468 78.651C345.707 79.4863 346.065 80.0233 346.542 80.262ZM351.017 86.706C351.853 86.706 352.27 85.7513 352.27 83.842C352.27 81.9327 351.853 80.978 351.017 80.978C350.301 80.978 349.943 81.9327 349.943 83.842C349.943 85.7513 350.301 86.706 351.017 86.706ZM357.103 86.527C357.103 85.9303 356.745 85.632 356.029 85.632C355.194 85.632 354.538 86.0497 354.06 86.885C353.702 87.601 353.822 88.138 354.418 88.496C355.015 88.7347 355.612 88.675 356.208 88.317C356.805 87.8397 357.103 87.243 357.103 86.527ZM359.43 98.341C359.43 97.625 359.013 97.267 358.177 97.267C357.461 97.267 357.103 97.9233 357.103 99.236C357.103 100.668 357.581 100.847 358.535 99.773C359.132 99.2957 359.43 98.8183 359.43 98.341ZM426.551 3.292C446.838 2.81466 460.144 2.63566 466.468 2.75499C472.793 2.87433 476.492 3.35166 477.566 4.187C479.118 5.261 479.595 6.39466 478.998 7.588C478.76 8.42333 477.387 8.96033 474.881 9.199C472.495 9.43766 467.304 9.61666 459.308 9.73599L440.155 10.094L439.976 16.001C439.976 17.075 439.917 19.8793 439.797 24.414C439.678 28.9487 439.559 32.4093 439.439 34.796L439.081 47.505L451.79 48.221C457.757 48.4597 461.397 48.758 462.709 49.116C464.022 49.3547 464.678 50.011 464.678 51.085C464.678 52.159 464.022 52.875 462.709 53.233C461.397 53.4717 457.638 53.7103 451.432 53.949L438.007 54.665L436.933 58.424C436.337 60.572 436.158 67.732 436.396 79.904L436.575 97.804L451.432 98.162C455.49 98.2813 458.592 98.4603 460.74 98.699C463.008 98.8183 464.857 99.1167 466.289 99.594C467.721 99.952 468.497 100.489 468.616 101.205C468.736 101.921 468.676 102.756 468.437 103.711C468.079 104.546 466.11 105.083 462.53 105.322C459.07 105.441 451.134 105.501 438.723 105.501C419.272 105.501 409.129 105.024 408.293 104.069C407.219 102.995 406.742 95.0593 406.861 80.262C406.981 65.4647 407.577 51.5027 408.651 38.376C409.725 24.414 410.024 15.9413 409.546 12.958C409.188 9.97466 409.427 7.76699 410.262 6.33499C410.859 5.14166 411.993 4.42566 413.663 4.187C415.334 3.82899 419.63 3.53066 426.551 3.292ZM432.637 12.421C432.637 11.5857 431.683 11.1083 429.773 10.989C427.864 10.7503 426.671 10.989 426.193 11.705C425.477 13.0177 426.193 13.7933 428.341 14.032C430.847 14.1513 432.279 13.6143 432.637 12.421ZM417.243 28.352C418.079 28.352 418.496 25.6073 418.496 20.118C418.496 14.6287 418.079 11.884 417.243 11.884C416.527 11.884 416.169 14.6287 416.169 20.118C416.169 25.6073 416.527 28.352 417.243 28.352ZM429.057 18.865C431.444 18.865 432.637 18.507 432.637 17.791C432.637 16.9557 431.444 16.538 429.057 16.538C426.671 16.538 425.477 16.9557 425.477 17.791C425.477 18.507 426.671 18.865 429.057 18.865ZM427.267 24.772C428.461 24.772 429.057 24.414 429.057 23.698C429.057 22.8627 428.461 22.445 427.267 22.445C426.074 22.445 425.477 22.8627 425.477 23.698C425.477 24.414 426.074 24.772 427.267 24.772ZM431.384 34.975C431.384 33.543 430.489 33.9607 428.699 36.228C427.387 38.018 426.85 39.1517 427.088 39.629C427.446 39.987 428.222 39.5097 429.415 38.197C430.728 36.8843 431.384 35.8103 431.384 34.975ZM417.959 41.24C417.482 40.4047 416.766 39.987 415.811 39.987C414.976 39.987 415.095 40.5837 416.169 41.777C417.243 42.9703 417.959 43.3283 418.317 42.851C418.556 42.6123 418.437 42.0753 417.959 41.24ZM426.551 59.319C425.239 57.0517 424.403 55.7987 424.045 55.56C423.807 55.202 423.389 55.3213 422.792 55.918C422.434 56.276 423.031 57.8273 424.582 60.572C426.134 63.1973 427.267 64.51 427.983 64.51C428.938 64.51 429.177 64.0327 428.699 63.078C428.461 62.4813 427.745 61.2283 426.551 59.319ZM426.193 80.978C427.625 79.188 428.103 78.2333 427.625 78.114C426.909 77.9947 425.835 78.7107 424.403 80.262C422.613 82.2907 422.076 83.305 422.792 83.305C423.628 83.305 424.761 82.5293 426.193 80.978ZM429.057 84.379C429.057 83.663 428.699 83.305 427.983 83.305C427.267 83.305 426.432 83.9017 425.477 85.095C424.523 86.2883 424.284 87.1237 424.761 87.601C425.239 87.959 426.074 87.7203 427.267 86.885C428.461 85.9303 429.057 85.095 429.057 84.379ZM421.897 91.181C418.437 86.885 416.527 84.737 416.169 84.737C416.169 85.2143 416.885 86.4673 418.317 88.496C419.749 90.5247 421.241 92.434 422.792 94.224C424.344 96.014 425.179 96.8493 425.298 96.73C425.656 96.372 424.523 94.5223 421.897 91.181ZM419.749 96.551C419.63 95.477 418.437 93.7467 416.169 91.36C415.453 90.5247 415.095 90.286 415.095 90.644C415.095 91.36 415.871 92.7323 417.422 94.761C418.974 96.6703 419.749 97.267 419.749 96.551ZM427.804 92.613C428.64 92.613 429.057 92.255 429.057 91.539C429.057 90.7037 428.64 90.286 427.804 90.286C427.088 90.286 426.73 90.7037 426.73 91.539C426.73 92.255 427.088 92.613 427.804 92.613ZM501.347 2.576C520.917 1.02466 534.521 2.15833 542.159 5.977C549.915 9.79566 553.794 17.254 553.794 28.352C553.794 31.6933 553.555 34.259 553.078 36.049C552.72 37.839 552.004 39.6887 550.93 41.598C549.378 44.2233 546.872 46.9083 543.412 49.653C540.07 52.3977 537.147 54.0683 534.641 54.665C532.493 55.1423 531.24 55.739 530.882 56.455C530.404 57.2903 531.896 61.288 535.357 68.448C538.459 74.892 541.204 81.6343 543.591 88.675C545.977 95.7157 546.872 99.8923 546.276 101.205C544.724 105.382 542.397 103.472 539.295 95.477C538.937 94.761 538.638 93.9853 538.4 93.15C536.49 87.5413 534.044 81.336 531.061 74.534C528.077 67.6127 525.81 63.0183 524.259 60.751C523.304 59.4383 522.349 58.603 521.395 58.245C520.44 57.7677 518.948 57.529 516.92 57.529C513.698 57.529 511.609 58.0063 510.655 58.961C509.939 60.035 509.282 67.553 508.686 81.515C508.089 95.7157 507.433 103.413 506.717 104.606C506.239 105.441 505.285 105.978 503.853 106.217C502.54 106.456 499.676 106.575 495.261 106.575C488.339 106.575 484.401 106.038 483.447 104.964C482.85 104.129 482.552 101.623 482.552 97.446C482.552 93.15 482.85 84.7967 483.447 72.386C485.356 28.4713 486.967 5.798 488.28 4.366C488.876 3.76933 493.232 3.17266 501.347 2.576ZM504.748 10.81C505.702 10.81 505.643 10.1537 504.569 8.84099L503.853 8.304C503.614 8.304 503.495 8.72166 503.495 9.55699C503.495 10.3923 503.912 10.81 504.748 10.81ZM535.178 9.73599C532.91 9.01999 528.614 8.60233 522.29 8.483C516.084 8.36366 512.803 8.60233 512.445 9.199C512.087 9.79566 511.788 16.9557 511.55 30.679L511.013 51.085L519.247 50.727C522.827 50.6077 525.81 50.3093 528.197 49.832C530.703 49.3547 532.91 48.6983 534.82 47.863C536.729 46.9083 538.579 45.715 540.369 44.283C545.381 40.1063 547.887 34.796 547.887 28.352C547.887 25.3687 547.35 22.624 546.276 20.118C545.321 17.612 543.889 15.464 541.98 13.674C540.07 11.884 537.803 10.5713 535.178 9.73599ZM504.569 16.717C504.569 15.8817 503.614 14.39 501.705 12.242C500.034 10.3327 499.079 9.79566 498.841 10.631C498.483 11.5857 499.199 13.0773 500.989 15.106C503.375 17.97 504.569 18.507 504.569 16.717ZM499.736 16.717C495.917 10.989 494.008 9.378 494.008 11.884C494.008 12.4807 494.724 13.853 496.156 16.001C497.707 18.149 499.199 20.0583 500.631 21.729C502.182 23.3997 503.017 24.056 503.137 23.698C503.375 23.1013 502.242 20.7743 499.736 16.717ZM497.409 24.772C498.244 24.772 498.662 24.414 498.662 23.698C498.662 22.8627 498.244 22.445 497.409 22.445C496.693 22.445 496.335 22.8627 496.335 23.698C496.335 24.414 496.693 24.772 497.409 24.772ZM492.755 29.426C493.59 29.426 494.008 28.4713 494.008 26.562C494.008 24.5333 493.59 23.519 492.755 23.519C492.039 23.519 491.681 24.5333 491.681 26.562C491.681 28.4713 492.039 29.426 492.755 29.426ZM500.989 30.679C501.824 30.679 502.242 30.321 502.242 29.605C502.242 28.7697 501.824 28.352 500.989 28.352C500.273 28.352 499.915 28.7697 499.915 29.605C499.915 30.321 500.273 30.679 500.989 30.679ZM496.335 34.08C497.17 34.08 497.588 33.543 497.588 32.469C497.588 31.2757 497.17 30.679 496.335 30.679C495.619 30.679 495.261 31.2757 495.261 32.469C495.261 33.543 495.619 34.08 496.335 34.08ZM498.125 41.777C493.829 35.691 491.681 33.8413 491.681 36.228C491.681 36.8247 492.874 38.9727 495.261 42.672C497.767 46.3713 499.378 48.4597 500.094 48.937C501.526 49.7723 502.063 49.5933 501.705 48.4C501.347 47.0873 500.153 44.8797 498.125 41.777ZM501.526 39.271C501.526 39.7483 501.705 40.166 502.063 40.524C502.54 40.7627 502.958 40.7627 503.316 40.524C503.793 40.2853 504.032 39.987 504.032 39.629C504.151 39.1517 503.972 38.734 503.495 38.376C503.137 38.018 502.719 37.9583 502.242 38.197C501.884 38.4357 501.645 38.7937 501.526 39.271ZM500.273 61.109C499.915 59.5577 499.378 58.782 498.662 58.782C497.349 58.782 497.17 59.498 498.125 60.93C498.363 61.288 498.721 61.646 499.199 62.004C499.915 62.6007 500.332 62.8393 500.452 62.72C500.571 62.6007 500.511 62.0637 500.273 61.109ZM495.261 70.954C495.977 70.4767 496.096 69.8203 495.619 68.985C495.261 68.0303 494.843 67.8513 494.366 68.448C494.127 68.6867 494.008 69.164 494.008 69.88C494.008 70.238 494.067 70.5363 494.187 70.775C494.306 70.8943 494.425 71.0137 494.545 71.133C494.783 71.133 495.022 71.0733 495.261 70.954ZM498.483 74.534C493.948 73.46 491.084 73.46 489.891 74.534C489.652 74.7727 489.533 75.0113 489.533 75.25C489.771 75.8467 490.845 76.3837 492.755 76.861C494.664 77.219 496.514 77.398 498.304 77.398C500.213 77.2787 501.168 76.9803 501.168 76.503C501.168 75.787 500.273 75.1307 498.483 74.534ZM493.471 82.052C495.38 82.052 496.335 81.694 496.335 80.978C496.335 80.1427 495.38 79.725 493.471 79.725C491.561 79.725 490.607 80.1427 490.607 80.978C490.607 81.694 491.561 82.052 493.471 82.052ZM497.23 87.243C499.02 85.9303 499.915 84.9757 499.915 84.379C499.915 83.663 499.616 83.305 499.02 83.305C498.304 83.305 497.23 84.0807 495.798 85.632C494.366 87.1833 493.829 88.138 494.187 88.496C494.545 88.854 495.559 88.4363 497.23 87.243ZM494.008 95.119C494.008 94.5223 493.411 93.687 492.218 92.613C491.144 91.539 490.607 91.4793 490.607 92.434C490.607 93.15 491.144 94.045 492.218 95.119C493.411 96.0737 494.008 96.0737 494.008 95.119ZM499.915 96.193C500.75 96.193 501.168 95.835 501.168 95.119C501.168 94.2837 500.75 93.866 499.915 93.866C499.079 93.866 498.662 94.2837 498.662 95.119C498.662 95.835 499.079 96.193 499.915 96.193ZM558.625 1.50199C559.461 0.547328 565.964 0.308664 578.136 0.785998C590.189 1.38266 596.514 1.86 597.11 2.21799C597.946 2.69532 598.125 4.18699 597.647 6.693C597.17 9.19899 595.857 13.7933 593.709 20.476C591.681 26.8007 588.16 35.691 583.148 47.147C578.256 58.4837 574.795 65.7033 572.766 68.806C571.573 70.8347 570.32 71.67 569.007 71.312C568.411 71.1927 567.874 70.6557 567.396 69.701C566.919 68.7463 566.322 66.658 565.606 63.436C565.01 60.0947 564.294 55.918 563.458 50.906C562.623 45.894 561.489 38.6743 560.057 29.247C558.387 18.3877 557.432 11.347 557.193 8.125C557.074 4.78366 557.551 2.57599 558.625 1.50199ZM571.871 9.55699C571.633 8.36366 571.155 7.64766 570.439 7.409C569.723 7.051 569.007 7.22999 568.291 7.94599C567.814 8.42333 568.172 10.3923 569.365 13.853C569.723 15.0463 570.38 15.285 571.334 14.569C572.408 13.9723 573.661 13.674 575.093 13.674C576.406 13.674 577.301 13.0177 577.778 11.705C578.256 10.273 578.017 9.07966 577.062 8.125C576.108 7.17033 575.451 7.588 575.093 9.37799C574.616 10.9293 574.079 11.7647 573.482 11.884C572.886 11.884 572.349 11.1083 571.871 9.55699ZM581.537 9.55699C582.373 9.55699 582.79 9.19899 582.79 8.483C582.79 7.64766 582.611 7.22999 582.253 7.22999C581.895 7.22999 581.478 7.64766 581 8.483C580.642 9.19899 580.821 9.55699 581.537 9.55699ZM566.143 11.705C565.905 9.915 565.248 8.90066 564.174 8.66199C563.578 8.42333 563.22 8.42333 563.1 8.66199C562.981 8.90066 563.041 9.378 563.279 10.094C563.757 11.4067 563.995 12.421 563.995 13.137C563.995 13.853 564.413 14.211 565.248 14.211C566.084 14.211 566.382 13.3757 566.143 11.705ZM587.444 10.094C588.518 8.90066 588.578 8.304 587.623 8.304C586.669 8.304 585.953 8.90066 585.475 10.094C585.237 10.9293 585.296 11.4067 585.654 11.526C586.012 11.6453 586.609 11.168 587.444 10.094ZM579.21 17.791C579.21 16.9557 578.733 16.6573 577.778 16.896C569.783 17.7313 565.785 18.6263 565.785 19.581C565.785 20.297 567.217 20.7743 570.081 21.013C572.349 21.2517 574.437 21.013 576.346 20.297C578.256 19.581 579.21 18.7457 579.21 17.791ZM581.537 22.982C585.833 18.686 587.564 16.538 586.728 16.538C586.012 16.538 583.745 18.507 579.926 22.445C576.108 26.2637 574.377 28.4117 574.735 28.889C575.213 29.247 577.48 27.278 581.537 22.982ZM569.902 29.605C569.902 28.7697 569.485 28.1133 568.649 27.636C567.933 27.1587 567.575 27.3377 567.575 28.173C567.575 28.889 567.933 29.4857 568.649 29.963C569.485 30.4403 569.902 30.321 569.902 29.605ZM581 29.426C581.358 28.71 581.179 28.352 580.463 28.352C579.628 28.352 579.031 28.71 578.673 29.426C578.196 30.2613 578.315 30.679 579.031 30.679C579.867 30.679 580.523 30.2613 581 29.426ZM577.42 38.555C578.256 38.0777 577.182 36.765 574.198 34.617C572.886 33.6623 572.229 33.364 572.229 33.722C572.229 34.438 573.005 35.512 574.556 36.944C576.108 38.376 577.062 38.913 577.42 38.555ZM565.069 85.453C568.291 82.3503 571.454 81.4553 574.556 82.768C577.659 84.0807 579.21 87.0043 579.21 91.539C579.21 94.5223 578.315 97.0283 576.525 99.057C574.735 100.966 572.528 101.921 569.902 101.921C565.845 101.921 563.22 100.012 562.026 96.193C560.952 92.255 561.967 88.675 565.069 85.453ZM573.124 91.002C572.528 89.6893 571.871 89.033 571.155 89.033C570.201 89.033 569.485 89.6893 569.007 91.002C568.649 92.1953 568.709 93.3887 569.186 94.582C569.544 95.5367 569.843 96.014 570.081 96.014C570.439 96.014 571.036 95.5963 571.871 94.761C573.184 93.4483 573.602 92.1953 573.124 91.002Z" fill="black"/>
</svg>
